<?xml version="1.0" encoding="utf-8"?>
<!-- Generator: Adobe Illustrator 19.0.0, SVG Export Plug-In . SVG Version: 6.00 Build 0)  -->
<svg version="1.1" id="Dharma" xmlns="http://www.w3.org/2000/svg" xmlns:xlink="http://www.w3.org/1999/xlink" x="0px" y="0px"
	 viewBox="1797.2 -135 200 200" style="enable-background:new 1797.2 -135 200 200;" xml:space="preserve">
<style type="text/css">
	.st0{fill:#FFFFFF;}
</style>
<path id="Logo" class="st0" d="M1963.9-14.1l-17.1-17.2l-5.7,5.7l11.4,11.4l-14.5,14.5l-9.6-9.6l-5-4.7l-5.7-5.7l-4.9-4.9l-6.5-6.5
	l-5.7,5.7l6.5,6.5l4.9,4.9l5.7,5.7l4.9,4.9l15.4,15.5L1963.9-14.1z M1923.3,26.4l-17.1-17.1l-5.7,5.7l11.4,11.4L1897.2,41
	l-14.5-14.5l9.6-9.6l4.9-4.9l5.7-5.7l4.9-4.9l6.5-6.5l-5.7-5.7l-6.5,6.5l-4.9,4.9l-5.7,5.7l-4.9,4.9l-15.4,15.4l26.2,26.2
	C1897.1,52.6,1923.3,26.4,1923.3,26.4z M1963.9-54.8l-26.2-26.2l-17.1,17.1l5.7,5.7l11.4-11.4l14.5,14.5l-8.6,8.6l-5.7,5.7l-5.7,5.7
	l-3.9,3.9l-7.5,7.5l5.7,5.7l6.2-6.2l5.2-5.2l5.7-5.7l4.6-4.6L1963.9-54.8L1963.9-54.8z M1934.6-43.6l-6.5-6.5l0,0l-15.5-15.5l0,0
	l-6.5-6.5l-5.7,5.7l6.5,6.5l4.9,4.9l5.7,5.7l4.9,4.9l6.5,6.5L1934.6-43.6L1934.6-43.6z M1893.9-2.7l-6.5-6.5l0,0l-15.5-15.5l0,0
	l-6.5-6.5l-5.7,5.7l6.5,6.5l4.9,4.9l5.7,5.7l4.9,4.9l6.5,6.5L1893.9-2.7z M1914.2-45.9l-5.7-5.7l-6.5,6.5l0,0l-15.5,15.5l0,0
	l-6.5,6.5l5.7,5.7l6.5-6.5l4.9-4.9l5.7-5.7l4.9-4.9L1914.2-45.9L1914.2-45.9z M1873.5-5.2l-5.7-5.7l-11.4,11.4l-14.5-14.5l9.6-9.6
	l0,0l15.5-15.5l0,0l6.5-6.5l-5.7-5.7l-6.5,6.5l-4.9,4.9l-5.7,5.7l-4.9,4.9l-15.4,15.4l26.2,26.2L1873.5-5.2L1873.5-5.2z
	 M1893.9-43.4l-6.5-6.5l-4.9-4.9l-5.7-5.7l-4.9-4.9l-15.5-15.5l-26,26.2l17.1,17.1l5.7-5.7l-11.4-11.4l14.5-14.5l9.6,9.6l4.9,4.9
	l5.7,5.7l4.9,4.9l6.5,6.5L1893.9-43.4z M1923.3-95.4l-26.2-26.2l-26.2,26.2l17.1,17.1l5.7-5.7l-11.4-11.4L1897-110l14.5,14.5
	l-9.6,9.6l-4.9,4.9l-5.7,5.7l-4.9,4.9l-6.5,6.5l5.7,5.7l6.5-6.5l0,0l15.7-15.5l0,0L1923.3-95.4L1923.3-95.4z"/>
</svg>
